<?xml version="1.0" encoding="utf-8"?>
<!-- Generator: Adobe Illustrator 21.0.2, SVG Export Plug-In . SVG Version: 6.00 Build 0)  -->
<svg version="1.1" id="Ebene_1" xmlns="http://www.w3.org/2000/svg" xmlns:xlink="http://www.w3.org/1999/xlink" x="0px" y="0px"
	 viewBox="0 0 200 200" style="enable-background:new 0 0 200 200;" xml:space="preserve">
<style type="text/css">
	.st0{fill:#3D5A98;}
	.st1{fill:#FFFFFF;}
</style>
<path id="Blue_1_" class="st0" d="M196.1,208c6.6,0,11.9-5.3,11.9-11.9V3.9C208-2.7,202.7-8,196.1-8H3.9C-2.7-8-8-2.7-8,3.9v192.2
	c0,6.6,5.3,11.9,11.9,11.9H196.1z"/>
<path id="f" class="st1" d="M138,200v-77.5h26l3.9-30.2H138V73.1c0-8.7,2.4-14.7,15-14.7l16,0v-27c-2.8-0.4-12.3-1.2-23.3-1.2
	c-23,0-38.8,14.1-38.8,39.9v22.3H80.8v30.2h26.1V200H138z"/>
</svg>
