<?xml version="1.0" encoding="utf-8"?>
<!-- Generator: Adobe Illustrator 21.0.2, SVG Export Plug-In . SVG Version: 6.00 Build 0)  -->
<svg version="1.1" id="Ebene_1" xmlns="http://www.w3.org/2000/svg" xmlns:xlink="http://www.w3.org/1999/xlink" x="0px" y="0px"
	 viewBox="0 0 154.5 52.5" style="enable-background:new 0 0 154.5 52.5;" xml:space="preserve">
<style type="text/css">
	.st0{fill:#007ABF;}
	.st1{fill:#333333;}
	.st2{fill:#FFFFFF;}
</style>
<rect x="-13.1" y="-5.3" class="st0" width="78.5" height="63"/>
<rect x="65.4" y="-5.3" class="st1" width="106.9" height="63"/>
<rect class="st0" width="65.4" height="52.5"/>
<rect x="65.4" y="0" class="st1" width="89.1" height="52.5"/>
<path class="st2" d="M29.4,43.4h-4.7L24,23.8l-0.1-4.3L24,17h-0.1c-0.6,2.2-1.3,4.5-2.1,6.8l-7,19.7H10L9,9.3h4.2l0.3,19.9
	c0,2.1-0.1,4.8-0.2,8.1h0.1c1-3.4,1.9-6.2,2.6-8.3l7.1-19.7h4.1l0.6,19.6l0.1,4l-0.1,4.4h0.1c0.3-1.4,0.8-2.9,1.3-4.6
	c0.5-1.7,0.9-2.9,1.1-3.6l6.5-19.8h4.5L29.4,43.4z"/>
<path class="st2" d="M45.8,43.9c-2.4,0-4.3-0.9-5.6-2.6c-1.3-1.7-2-4.1-2-7.2c0-3.1,0.5-6,1.4-8.6c0.9-2.7,2.2-4.7,3.8-6.2
	c1.6-1.4,3.4-2.2,5.4-2.2c2,0,3.5,0.6,4.6,1.7c1.1,1.1,1.6,2.7,1.6,4.8c0,2.8-1,5.1-3,6.6c-2,1.6-4.9,2.4-8.7,2.4h-0.8l0,0.7v0.7
	c0,1.7,0.3,3.1,1,4.1c0.7,1,1.7,1.5,3.1,1.5c0.9,0,1.7-0.1,2.6-0.4c0.9-0.3,1.9-0.8,3.1-1.5V42c-1.2,0.7-2.2,1.2-3.2,1.5
	C48.1,43.8,47,43.9,45.8,43.9z M48.6,21.3c-1.2,0-2.3,0.7-3.3,2c-1,1.3-1.8,3.1-2.2,5.3h0.5c2.3,0,4.1-0.4,5.4-1.3
	c1.3-0.8,1.9-2,1.9-3.5c0-0.8-0.2-1.4-0.6-1.9C50,21.5,49.4,21.3,48.6,21.3z"/>
<path class="st2" d="M60.4,33l0.8-4.7h9.2L69.6,33H60.4z"/>
<path class="st2" d="M83.8,43.4h-4.3l4.8-29.4h-6.9l0.8-4.8h18.2l-0.8,4.8h-7L83.8,43.4z"/>
<path class="st2" d="M98.2,43.9c-2.4,0-4.3-0.9-5.6-2.6c-1.3-1.7-2-4.1-2-7.2c0-3.1,0.5-6,1.4-8.6c0.9-2.7,2.2-4.7,3.8-6.2
	c1.6-1.4,3.4-2.2,5.4-2.2c2,0,3.5,0.6,4.6,1.7c1.1,1.1,1.6,2.7,1.6,4.8c0,2.8-1,5.1-3,6.6c-2,1.6-4.9,2.4-8.7,2.4h-0.8l0,0.7v0.7
	c0,1.7,0.3,3.1,1,4.1c0.7,1,1.7,1.5,3.1,1.5c0.9,0,1.7-0.1,2.6-0.4c0.9-0.3,1.9-0.8,3.1-1.5V42c-1.2,0.7-2.2,1.2-3.2,1.5
	C100.5,43.8,99.4,43.9,98.2,43.9z M100.9,21.3c-1.2,0-2.3,0.7-3.3,2c-1,1.3-1.8,3.1-2.2,5.3h0.5c2.3,0,4.1-0.4,5.4-1.3
	c1.3-0.8,1.9-2,1.9-3.5c0-0.8-0.2-1.4-0.6-1.9C102.3,21.5,101.7,21.3,100.9,21.3z"/>
<path class="st2" d="M116.2,37.6c0.9-2.8,1.7-5.2,2.5-7.2L127,9.3h4.6l-14,34.2h-4.7l-2.6-34.2h4.2l1.4,21.2
	c0.1,1.6,0.2,3.4,0.2,5.4L116.2,37.6L116.2,37.6z"/>
<path class="st2" d="M136,43.9c-2.4,0-4.3-0.9-5.6-2.6c-1.3-1.7-2-4.1-2-7.2c0-3.1,0.5-6,1.4-8.6c0.9-2.7,2.2-4.7,3.8-6.2
	c1.6-1.4,3.4-2.2,5.4-2.2c2,0,3.5,0.6,4.6,1.7c1.1,1.1,1.6,2.7,1.6,4.8c0,2.8-1,5.1-3,6.6c-2,1.6-4.9,2.4-8.7,2.4h-0.8l0,0.7v0.7
	c0,1.7,0.3,3.1,1,4.1c0.7,1,1.7,1.5,3.1,1.5c0.9,0,1.7-0.1,2.6-0.4c0.9-0.3,1.9-0.8,3.1-1.5V42c-1.2,0.7-2.2,1.2-3.2,1.5
	C138.3,43.8,137.2,43.9,136,43.9z M138.8,21.3c-1.2,0-2.3,0.7-3.3,2c-1,1.3-1.8,3.1-2.2,5.3h0.5c2.3,0,4.1-0.4,5.4-1.3
	c1.3-0.8,1.9-2,1.9-3.5c0-0.8-0.2-1.4-0.6-1.9C140.1,21.5,139.6,21.3,138.8,21.3z"/>
</svg>
